REM GENRE Blues
REM DATE 2004
REM DISCID 2902B004
REM COMMENT "ExactAudioCopy v0.99pb3"
PERFORMER "Black Keys"
TITLE "The Moan"
FILE "01 - The Moan.wav" WAVE
  TRACK 01 AUDIO
    TITLE "The Moan"
    PERFORMER "Black Keys"
    INDEX 01 00:00:00
FILE "02 - Heavy Soul (Alternate).wav" WAVE
  TRACK 02 AUDIO
    TITLE "Heavy Soul (Alternate)"
    PERFORMER "Black Keys"
    INDEX 01 00:00:00
  TRACK 03 AUDIO
    TITLE "No Fun"
    PERFORMER "Black Keys"
    INDEX 00 02:36:30
FILE "03 - No Fun.wav" WAVE
    INDEX 01 00:00:00
FILE "04 - Have Love Will Travel.wav" WAVE
  TRACK 04 AUDIO
    TITLE "Have Love Will Travel"
    PERFORMER "Black Keys"
    INDEX 01 00:00:00
